<mxfile host="app.diagrams.net" modified="2022-09-06T07:58:58.958Z" agent="5.0 (Windows NT 10.0; Win64; x64) AppleWebKit/537.36 (KHTML, like Gecko) Chrome/102.0.5005.148 Safari/537.36 Edg/102.0.1245.56" etag="o3y4sUAzDHc1yKbvV9GB" version="20.2.8" type="github">
  <diagram id="_FEHBMe-WtapZqSm3n5B" name="ページ1">
    <mxGraphModel dx="1609" dy="1183" grid="1" gridSize="10" guides="1" tooltips="1" connect="1" arrows="1" fold="1" page="1" pageScale="1" pageWidth="1169" pageHeight="827" math="0" shadow="0">
      <root>
        <mxCell id="0" />
        <mxCell id="1" parent="0" />
        <mxCell id="ADqPrzjA_RwsDzK-S_yt-1" value="" style="shape=process;whiteSpace=wrap;html=1;backgroundOutline=1;fillColor=#cce5ff;strokeColor=#36393d;gradientColor=#C9E8FF;" vertex="1" parent="1">
          <mxGeometry x="160" y="700" width="120" height="10" as="geometry" />
        </mxCell>
        <mxCell id="ADqPrzjA_RwsDzK-S_yt-2" value="" style="shape=process;whiteSpace=wrap;html=1;backgroundOutline=1;fillColor=#cce5ff;strokeColor=#36393d;gradientColor=#C9E8FF;" vertex="1" parent="1">
          <mxGeometry x="160" y="710" width="120" height="10" as="geometry" />
        </mxCell>
        <mxCell id="ADqPrzjA_RwsDzK-S_yt-3" value="" style="shape=process;whiteSpace=wrap;html=1;backgroundOutline=1;fillColor=#cce5ff;strokeColor=#36393d;gradientColor=#C9E8FF;" vertex="1" parent="1">
          <mxGeometry x="160" y="720" width="120" height="10" as="geometry" />
        </mxCell>
        <mxCell id="ADqPrzjA_RwsDzK-S_yt-4" value="" style="shape=process;whiteSpace=wrap;html=1;backgroundOutline=1;fillColor=#fad9d5;strokeColor=#ae4132;" vertex="1" parent="1">
          <mxGeometry x="160" y="730" width="120" height="10" as="geometry" />
        </mxCell>
        <mxCell id="ADqPrzjA_RwsDzK-S_yt-5" value="" style="shape=process;whiteSpace=wrap;html=1;backgroundOutline=1;fillColor=#fad9d5;strokeColor=#ae4132;" vertex="1" parent="1">
          <mxGeometry x="160" y="740" width="120" height="10" as="geometry" />
        </mxCell>
        <mxCell id="ADqPrzjA_RwsDzK-S_yt-6" value="" style="shape=process;whiteSpace=wrap;html=1;backgroundOutline=1;fillColor=#fad9d5;strokeColor=#ae4132;" vertex="1" parent="1">
          <mxGeometry x="160" y="750" width="120" height="10" as="geometry" />
        </mxCell>
        <mxCell id="ADqPrzjA_RwsDzK-S_yt-7" value="" style="shape=process;whiteSpace=wrap;html=1;backgroundOutline=1;fillColor=#fad9d5;strokeColor=#ae4132;" vertex="1" parent="1">
          <mxGeometry x="160" y="760" width="120" height="10" as="geometry" />
        </mxCell>
        <mxCell id="ADqPrzjA_RwsDzK-S_yt-8" value="" style="shape=process;whiteSpace=wrap;html=1;backgroundOutline=1;fillColor=#fad9d5;strokeColor=#ae4132;" vertex="1" parent="1">
          <mxGeometry x="160" y="770" width="120" height="10" as="geometry" />
        </mxCell>
        <mxCell id="ADqPrzjA_RwsDzK-S_yt-9" value="" style="shape=process;whiteSpace=wrap;html=1;backgroundOutline=1;fillColor=#fad9d5;strokeColor=#ae4132;" vertex="1" parent="1">
          <mxGeometry x="160" y="780" width="120" height="10" as="geometry" />
        </mxCell>
        <mxCell id="ADqPrzjA_RwsDzK-S_yt-10" value="" style="html=1;shadow=0;dashed=0;align=center;verticalAlign=middle;shape=mxgraph.arrows2.arrow;dy=0.41;dx=45.8;notch=0;fillColor=#d5e8d4;strokeColor=#82b366;" vertex="1" parent="1">
          <mxGeometry x="300" y="730" width="240" height="50" as="geometry" />
        </mxCell>
        <mxCell id="ADqPrzjA_RwsDzK-S_yt-11" value="" style="shape=process;whiteSpace=wrap;html=1;backgroundOutline=1;fillColor=#cce5ff;strokeColor=#36393d;" vertex="1" parent="1">
          <mxGeometry x="560" y="730" width="90" height="20" as="geometry" />
        </mxCell>
        <mxCell id="ADqPrzjA_RwsDzK-S_yt-12" value="" style="shape=process;whiteSpace=wrap;html=1;backgroundOutline=1;fillColor=#cce5ff;strokeColor=#36393d;" vertex="1" parent="1">
          <mxGeometry x="560" y="750" width="90" height="20" as="geometry" />
        </mxCell>
        <mxCell id="ADqPrzjA_RwsDzK-S_yt-13" value="" style="shape=process;whiteSpace=wrap;html=1;backgroundOutline=1;fillColor=#cce5ff;strokeColor=#36393d;" vertex="1" parent="1">
          <mxGeometry x="560" y="770" width="90" height="20" as="geometry" />
        </mxCell>
        <mxCell id="ADqPrzjA_RwsDzK-S_yt-14" value="" style="verticalLabelPosition=bottom;verticalAlign=top;html=1;shape=mxgraph.basic.partConcEllipse;startAngle=0.131915424783331;endAngle=0.0838153334156787;arcWidth=0.16;rotation=90;fillColor=#d5e8d4;strokeColor=none;" vertex="1" parent="1">
          <mxGeometry x="610" y="300" width="500" height="500" as="geometry" />
        </mxCell>
        <mxCell id="ADqPrzjA_RwsDzK-S_yt-15" value="" style="html=1;shadow=0;dashed=0;align=center;verticalAlign=middle;shape=mxgraph.arrows2.arrow;dy=0.6;dx=40;direction=south;notch=0;fillColor=#d5e8d4;strokeColor=none;rotation=-135;" vertex="1" parent="1">
          <mxGeometry x="980" y="690" width="80" height="40" as="geometry" />
        </mxCell>
        <mxCell id="ADqPrzjA_RwsDzK-S_yt-16" value="" style="sketch=0;pointerEvents=1;shadow=0;dashed=0;html=1;strokeColor=#6c8ebf;fillColor=#dae8fc;labelPosition=center;verticalLabelPosition=bottom;verticalAlign=top;outlineConnect=0;align=center;shape=mxgraph.office.users.writer;" vertex="1" parent="1">
          <mxGeometry x="99" y="350" width="54" height="59" as="geometry" />
        </mxCell>
        <mxCell id="ADqPrzjA_RwsDzK-S_yt-17" value="" style="sketch=0;pointerEvents=1;shadow=0;dashed=0;html=1;strokeColor=none;fillColor=#505050;labelPosition=center;verticalLabelPosition=bottom;verticalAlign=top;outlineConnect=0;align=center;shape=mxgraph.office.users.meeting;" vertex="1" parent="1">
          <mxGeometry x="371" y="780" width="59" height="38" as="geometry" />
        </mxCell>
        <mxCell id="ADqPrzjA_RwsDzK-S_yt-18" value="" style="sketch=0;pointerEvents=1;shadow=0;dashed=0;html=1;strokeColor=none;fillColor=#505050;labelPosition=center;verticalLabelPosition=bottom;verticalAlign=top;outlineConnect=0;align=center;shape=mxgraph.office.users.csv_file;" vertex="1" parent="1">
          <mxGeometry x="770" y="690" width="59" height="43" as="geometry" />
        </mxCell>
        <mxCell id="ADqPrzjA_RwsDzK-S_yt-19" value="" style="sketch=0;pointerEvents=1;shadow=0;dashed=0;html=1;strokeColor=#b85450;fillColor=#f8cecc;labelPosition=center;verticalLabelPosition=bottom;verticalAlign=top;outlineConnect=0;align=center;shape=mxgraph.office.users.writer;" vertex="1" parent="1">
          <mxGeometry x="193" y="350" width="54" height="59" as="geometry" />
        </mxCell>
        <mxCell id="ADqPrzjA_RwsDzK-S_yt-20" value="" style="verticalLabelPosition=bottom;verticalAlign=top;html=1;shape=mxgraph.basic.partConcEllipse;startAngle=0.36609662241385144;endAngle=0.1726120814021048;arcWidth=0.39;rotation=90;fillColor=#d5e8d4;strokeColor=none;" vertex="1" parent="1">
          <mxGeometry x="759.5" y="615" width="70" height="70" as="geometry" />
        </mxCell>
        <mxCell id="ADqPrzjA_RwsDzK-S_yt-21" value="" style="html=1;shadow=0;dashed=0;align=center;verticalAlign=middle;shape=mxgraph.arrows2.arrow;dy=0.6;dx=40;direction=south;notch=0;fillColor=#d5e8d4;strokeColor=none;rotation=-45;" vertex="1" parent="1">
          <mxGeometry x="764.5" y="660" width="32" height="20" as="geometry" />
        </mxCell>
        <mxCell id="ADqPrzjA_RwsDzK-S_yt-22" value="" style="sketch=0;pointerEvents=1;shadow=0;dashed=0;html=1;strokeColor=none;fillColor=#505050;labelPosition=center;verticalLabelPosition=bottom;verticalAlign=top;outlineConnect=0;align=center;shape=mxgraph.office.users.approver;" vertex="1" parent="1">
          <mxGeometry x="40" y="40" width="59" height="55" as="geometry" />
        </mxCell>
        <mxCell id="ADqPrzjA_RwsDzK-S_yt-23" value="" style="sketch=0;pointerEvents=1;shadow=0;dashed=0;html=1;strokeColor=#6c8ebf;labelPosition=center;verticalLabelPosition=bottom;verticalAlign=top;outlineConnect=0;align=center;shape=mxgraph.office.users.users;fillColor=#dae8fc;" vertex="1" parent="1">
          <mxGeometry x="829" y="397.39" width="60" height="50" as="geometry" />
        </mxCell>
        <mxCell id="ADqPrzjA_RwsDzK-S_yt-24" value="" style="sketch=0;pointerEvents=1;shadow=0;dashed=0;html=1;strokeColor=#6c8ebf;fillColor=#dae8fc;labelPosition=center;verticalLabelPosition=bottom;verticalAlign=top;outlineConnect=0;align=center;shape=mxgraph.office.users.writer;" vertex="1" parent="1">
          <mxGeometry x="1178.46" y="397.39" width="54" height="59" as="geometry" />
        </mxCell>
        <mxCell id="ADqPrzjA_RwsDzK-S_yt-25" value="" style="sketch=0;pointerEvents=1;shadow=0;dashed=0;html=1;strokeColor=#b85450;fillColor=#f8cecc;labelPosition=center;verticalLabelPosition=bottom;verticalAlign=top;outlineConnect=0;align=center;shape=mxgraph.office.users.writer;" vertex="1" parent="1">
          <mxGeometry x="1260" y="320" width="54" height="59" as="geometry" />
        </mxCell>
        <mxCell id="ADqPrzjA_RwsDzK-S_yt-26" value="" style="sketch=0;pointerEvents=1;shadow=0;dashed=0;html=1;strokeColor=none;fillColor=#505050;labelPosition=center;verticalLabelPosition=bottom;verticalAlign=top;outlineConnect=0;align=center;shape=mxgraph.office.users.communications;" vertex="1" parent="1">
          <mxGeometry x="1390" y="480" width="54" height="58" as="geometry" />
        </mxCell>
        <mxCell id="ADqPrzjA_RwsDzK-S_yt-27" value="" style="shape=mxgraph.signs.travel.present;html=1;pointerEvents=1;fillColor=#000000;strokeColor=none;verticalLabelPosition=bottom;verticalAlign=top;align=center;sketch=0;" vertex="1" parent="1">
          <mxGeometry x="1280" y="570" width="60" height="60" as="geometry" />
        </mxCell>
        <mxCell id="ADqPrzjA_RwsDzK-S_yt-28" value="" style="html=1;shadow=0;dashed=0;align=center;verticalAlign=middle;shape=mxgraph.arrows2.jumpInArrow;dy=15;dx=38;arrowHead=55;gradientColor=#C9E8FF;" vertex="1" parent="1">
          <mxGeometry x="760" y="550" width="100" height="100" as="geometry" />
        </mxCell>
        <mxCell id="ADqPrzjA_RwsDzK-S_yt-29" value="" style="html=1;shadow=0;dashed=0;align=center;verticalAlign=middle;shape=mxgraph.arrows2.jumpInArrow;dy=22.88;dx=37.28;arrowHead=92.82;rotation=-15;direction=east;flipH=1;fillColor=#d5e8d4;strokeColor=#82b366;" vertex="1" parent="1">
          <mxGeometry x="295.5" y="160" width="970" height="270" as="geometry" />
        </mxCell>
        <mxCell id="ADqPrzjA_RwsDzK-S_yt-30" value="" style="html=1;shadow=0;dashed=0;align=center;verticalAlign=middle;shape=mxgraph.arrows2.bendArrow;dy=15;dx=38;notch=0;arrowHead=55;rounded=1;flipV=1;rotation=-90;fillColor=#d5e8d4;strokeColor=#82b366;" vertex="1" parent="1">
          <mxGeometry x="1139.21" y="572.5" width="132.5" height="265" as="geometry" />
        </mxCell>
      </root>
    </mxGraphModel>
  </diagram>
</mxfile>
